
<svg version="1.0" xmlns="http://www.w3.org/2000/svg"
 width="320.000000pt" height="320.000000pt" viewBox="0 0 320.000000 320.000000"
 preserveAspectRatio="xMidYMid meet">

<g transform="translate(0.000000,320.000000) scale(0.100000,-0.100000)"
fill="#000000" stroke="none">
<path d="M320 2840 l0 -230 124 0 c142 0 136 4 136 -93 l0 -62 -45 -18 c-96
-40 -179 -148 -204 -265 -15 -74 -15 -1710 0 -1784 35 -166 146 -278 303 -307
82 -15 1690 -15 1772 0 157 29 268 141 303 307 15 74 15 1710 0 1784 -25 117
-108 225 -204 265 l-45 18 0 62 c0 97 -6 93 136 93 l124 0 0 230 0 230 -1200
0 -1200 0 0 -230z m1354 81 c76 -33 112 -65 142 -127 26 -53 28 -65 26 -168
-3 -202 -62 -291 -210 -317 -148 -26 -252 74 -252 243 l0 48 70 0 70 0 0 -38
c0 -55 23 -82 68 -82 20 0 42 4 49 8 35 22 45 153 15 211 -25 51 -60 72 -129
78 -117 11 -230 -46 -254 -126 -6 -21 -10 -78 -8 -127 6 -136 27 -171 228
-378 198 -202 224 -245 230 -368 l3 -78 -101 0 -101 0 0 68 c0 105 -26 149
-184 312 -208 214 -246 285 -254 470 -3 88 -1 115 17 163 55 157 210 241 431
233 71 -2 108 -8 144 -25z m-793 -37 c56 -28 59 -52 59 -392 0 -359 -4 -379
-78 -447 -102 -92 -136 -131 -163 -190 -56 -118 -59 -153 -59 -695 0 -461 2
-498 19 -536 10 -23 34 -52 52 -65 l34 -24 776 0 776 0 35 27 c70 53 69 50 66
638 -3 511 -4 527 -25 590 -29 84 -83 162 -153 218 -30 24 -68 67 -85 96 l-30
51 -3 315 c-4 351 0 379 51 410 29 18 51 20 215 20 l182 0 0 -59 0 -58 -80 -5
c-86 -5 -114 -18 -154 -72 -19 -25 -21 -42 -21 -181 0 -175 2 -180 83 -210 80
-30 118 -60 146 -118 l26 -53 -2 -870 -3 -869 -22 -41 c-28 -53 -83 -100 -130
-113 -52 -15 -1694 -15 -1746 0 -47 13 -102 60 -130 113 l-22 41 -3 869 -2
870 26 53 c28 58 66 88 146 118 81 30 83 35 83 210 0 139 -2 156 -21 181 -40
54 -68 67 -154 72 l-80 5 0 58 0 59 180 0 c145 0 187 -3 211 -16z m1349 -1724
c0 -407 -1 -421 -20 -440 -20 -20 -33 -20 -690 -20 -657 0 -670 0 -690 20 -19
19 -20 33 -20 440 l0 420 710 0 710 0 0 -420z"/>
</g>
</svg>
